HIERARCHY
ROOT Hips
{
  OFFSET -69.4423 88.0299 51.6846
  CHANNELS 6 Xposition Yposition Zposition Zrotation Xrotation Yrotation
  JOINT Spine
  {
    OFFSET 12.0259 -0.162853 1.93176e-005
    CHANNELS 3 Zrotation Xrotation Yrotation
    JOINT Spine1
    {
      OFFSET 15.3169 -0.0121909 0
      CHANNELS 3 Zrotation Xrotation Yrotation
      JOINT Spine2
      {
        OFFSET 15.3176 -0.0121922 0
        CHANNELS 3 Zrotation Xrotation Yrotation
        JOINT Neck
        {
          OFFSET 19.9142 1.56236 0
          CHANNELS 3 Zrotation Xrotation Yrotation
          JOINT Head
          {
            OFFSET 6.92646 0 0
            CHANNELS 3 Zrotation Xrotation Yrotation
            End Site
            {
              OFFSET 20.7666 0 0
            }
          }
          JOINT LeftShoulder
          {
            OFFSET -4.94072 -1.14703 8.14416
            CHANNELS 3 Zrotation Xrotation Yrotation
            JOINT LeftArm
            {
              OFFSET 14.108 0 -2.74767e-005
              CHANNELS 3 Zrotation Xrotation Yrotation
              JOINT LeftForeArm
              {
                OFFSET 28.5802 -0.0783412 -0.0284884
                CHANNELS 3 Zrotation Xrotation Yrotation
                JOINT LeftHand
                {
                  OFFSET 27.092 0 0
                  CHANNELS 3 Zrotation Xrotation Yrotation
                  End Site
                  {
                    OFFSET 9.55928 -0.186424 0.145352
                  }
                }
              }
            }
          }
          JOINT RightShoulder
          {
            OFFSET -7.15748 -1.33027 -6.24935
            CHANNELS 3 Zrotation Xrotation Yrotation
            JOINT RightArm
            {
              OFFSET 14.108 0 1.82997e-005
              CHANNELS 3 Zrotation Xrotation Yrotation
              JOINT RightForeArm
              {
                OFFSET 28.5802 -0.0707221 2.30684e-005
                CHANNELS 3 Zrotation Xrotation Yrotation
                JOINT RightHand
                {
                  OFFSET 27.092 0 -1.30073e-005
                  CHANNELS 3 Zrotation Xrotation Yrotation
                  End Site
                  {
                    OFFSET 9.55929 -0.186417 -0.145354
                  }
                }
              }
            }
          }
        }
      }
    }
  }
  JOINT LeftUpLeg
  {
    OFFSET 0.00499725 -0.534999 8.837
    CHANNELS 3 Zrotation Xrotation Yrotation
    JOINT LeftLeg
    {
      OFFSET 39.9035 -0.00124594 0.000252775
      CHANNELS 3 Zrotation Xrotation Yrotation
      JOINT LeftFoot
      {
        OFFSET 39.6689 0 0
        CHANNELS 3 Zrotation Xrotation Yrotation
        JOINT LeftToe
        {
          OFFSET 10.1624 13.6296 0
          CHANNELS 3 Zrotation Xrotation Yrotation
          End Site
          {
            OFFSET 8.38147 0 0
          }
        }
      }
    }
  }
  JOINT RightUpLeg
  {
    OFFSET 0.00499725 -0.535 -8.837
    CHANNELS 3 Zrotation Xrotation Yrotation
    JOINT RightLeg
    {
      OFFSET 39.9036 -0.000268477 0.000106433
      CHANNELS 3 Zrotation Xrotation Yrotation
      JOINT RightFoot
      {
        OFFSET 39.6689 1.17892e-005 0
        CHANNELS 3 Zrotation Xrotation Yrotation
        JOINT RightToe
        {
          OFFSET 10.1624 13.6296 0
          CHANNELS 3 Zrotation Xrotation Yrotation
          End Site
          {
            OFFSET 8.38147 0 0
          }
        }
      }
    }
  }
}
MOTION
Frames:	15
Frame Time:	0.0333333
-64.7558 88.2886 41.1915 -91.5302 6.67059 -177.338 0.874502 1.97491 -0.194029 1.75925 3.94706 -0.418474 1.75922 3.94706 -0.418487 -15.2808 0.501313 -9.61482 50.639 3.62653 6.76629 -166.322 -0.45172 -93.3745 -20.551 5.6495 79.2865 -26.8383 3.0336 -16.6458 19.7174 -85.6961 21.9554 -166.442 -2.9451 75.4462 -7.09637 -5.29071 -83.7587 -29.0486 -4.13115 17.3186 3.7828 83.5304 -3.60271 -7.13284 -2.30881 -179.505 -21.4262 1.01367 -1.27194 2.32183 9.05365 1.37455 90 -7.95139e-016 9.54166e-015 -13.5727 -7.81981 169.175 -43.447 -0.304701 0.313526 10.3993 6.96586 -1.13029 90 -7.25564e-015 -9.54166e-015 
-64.7951 88.329 40.6646 -91.6025 8.96742 -177.85 0.847862 1.80553 -0.039196 1.69826 3.61079 -0.105049 1.69825 3.61076 -0.105061 -15.5036 1.4581 -10.2279 50.5673 4.93969 5.81409 -165.948 0.268303 -94.2089 -17.3985 5.12021 79.578 -26.7663 3.03919 -16.5908 23.0054 -86.3033 25.2801 -166.099 -2.16611 74.5928 -10.2623 -5.45684 -83.4269 -29.4041 -4.21323 17.5046 4.36663 84.9336 -4.1819 -7.04159 -1.04782 -179.302 -21.9445 0.989266 -1.25062 2.93457 7.87932 1.24731 90 2.38542e-015 3.18055e-015 -13.9511 -11.7534 171.74 -45.8387 -0.326343 0.194708 11.0652 5.21164 -1.30248 90 -1.03368e-014 9.54166e-015 
-64.8588 88.1812 39.7966 -91.5641 10.4118 -178.013 0.830278 1.71305 -0.0805738 1.66409 3.42523 -0.185953 1.66408 3.42526 -0.185974 -15.7103 1.67966 -10.2768 50.7045 5.26604 5.68471 -165.701 0.412522 -94.276 -15.972 4.88057 79.3097 -26.3775 2.97376 -16.3715 24.5827 -86.4014 26.8801 -165.868 -2.00306 74.5144 -11.4924 -5.48324 -83.9371 -29.8614 -4.33709 17.7447 3.60906 83.6066 -3.42537 -7.65174 -0.958641 -179.77 -23.2644 0.986347 -1.22567 3.44993 6.67282 1.11617 90 -3.97569e-015 -3.18055e-015 -13.3909 -15.4149 173.687 -46.8528 -0.33478 0.0908004 11.7548 2.5572 -1.40768 90 -1.59028e-015 -3.18055e-015 
-64.8637 87.9947 39.0571 -91.6582 11.9785 -178.041 0.76367 1.69345 -0.193267 1.53407 3.38463 -0.409205 1.53407 3.38462 -0.409221 -15.6171 1.73207 -10.3065 50.4923 5.38378 5.78703 -165.781 0.432466 -94.2831 -16.0846 5.22243 78.7333 -26.0841 2.90977 -16.1823 28.4885 -86.8419 30.8424 -165.95 -1.94721 74.5139 -11.912 -5.3199 -84.4472 -30.0915 -4.38508 17.8368 3.02983 82.7147 -2.81934 -8.22227 -0.00708005 179.832 -24.4434 0.986174 -1.19632 4.27018 5.87436 1.03203 90 4.77083e-015 -0 -11.8055 -17.2948 175.872 -45.5924 -0.375516 0.0261567 10.4197 0.229923 -1.29759 90 1.43125e-014 9.54166e-015 
-64.9092 87.7539 38.2424 -92.0166 13.8802 -177.531 0.644948 1.76258 -0.340585 1.3013 3.52165 -0.701355 1.30128 3.52165 -0.701357 -15.511 1.77442 -10.6514 50.452 5.43643 5.90236 -165.887 0.366566 -94.584 -16.8289 5.63885 78.6535 -25.778 2.84146 -16.0095 27.3066 -86.7737 29.6288 -166.055 -1.97359 74.2202 -12.9368 -5.42499 -84.5593 -30.3324 -4.4535 17.9604 3.69903 83.629 -3.50953 -8.91165 1.01237 178.948 -25.4765 0.982521 -1.17479 5.21135 4.60821 0.936071 90 -1.59028e-015 -3.18055e-015 -9.95378 -16.7555 177.513 -42.1931 -0.439808 0.0511681 8.65414 0.854746 -1.14175 90 6.36111e-015 3.18055e-015 
-64.9435 87.5523 37.9305 -91.8252 16.3933 -177.941 0.619637 1.98475 -0.323053 1.2516 3.96631 -0.668014 1.25159 3.9663 -0.668021 -15.5195 1.86113 -10.7989 50.8409 5.44514 5.69975 -165.872 0.396037 -94.7535 -17.6689 6.17823 78.5963 -25.831 2.83113 -16.0228 22.2912 -86.3872 24.6287 -166.033 -1.92014 74.0656 -12.8337 -5.18433 -84.6124 -30.3144 -4.4493 17.9483 3.53302 83.1987 -3.34661 -9.51057 2.63336 179.406 -27.6639 0.966249 -1.11162 6.26894 4.40762 0.935782 90 4.37326e-015 3.18055e-015 -6.75264 -14.3941 179.73 -37.2263 -0.545555 0.194491 11.1383 6.74579 -1.3418 90 7.95139e-015 6.36111e-015 
-65.127 87.3956 37.2576 -91.7491 18.7423 -178.353 0.662605 1.99985 -0.200119 1.33342 3.9977 -0.423593 1.33341 3.9977 -0.423611 -16.0016 2.36203 -11.413 51.0979 6.08708 5.42119 -165.318 0.606614 -95.4165 -16.0485 5.36816 79.3598 -25.6761 2.83097 -16.0008 13.8797 -84.6478 16.1306 -165.471 -1.72372 73.3565 -14.0197 -4.60234 -83.6582 -29.8854 -4.32616 17.7168 3.70358 83.4989 -3.51425 -10.6566 2.86433 179.42 -30.1866 0.960951 -1.07768 6.74076 2.77689 0.885898 90 3.97569e-016 -0 -4.91412 -11.9573 -179.623 -33.7352 -0.588467 0.243042 12.0667 6.8194 -1.52933 90 4.77083e-015 -3.18055e-015 
-65.4417 87.3157 36.5941 -91.5921 21.5319 -178.561 0.716653 2.30111 -0.160037 1.44149 4.60055 -0.349147 1.44148 4.60055 -0.349155 -16.0862 2.31425 -11.5041 50.8988 5.90273 5.48131 -165.278 0.511927 -95.4815 -15.7202 4.89625 80.6511 -25.8565 2.90178 -16.1658 21.0946 -85.8465 23.4215 -165.391 -1.86308 73.2783 -13.8624 -4.09993 -82.8816 -29.7059 -4.28245 17.634 3.76992 83.5618 -3.59301 -12.4448 2.5568 179.415 -33.8298 0.949567 -0.983389 6.91292 2.21003 0.845203 90 7.95139e-016 9.54166e-015 -4.16955 -9.97145 -179.985 -31.8002 -0.595622 0.233963 12.1256 4.26695 -1.52107 90 6.36111e-015 3.18055e-015 
-65.7611 87.5221 36.0725 -91.0691 24.1049 179.802 0.879495 2.5019 0.197553 1.75288 5.00691 0.357271 1.75287 5.00691 0.357265 -16.408 2.25505 -11.4699 50.8708 5.47418 5.2914 -164.969 0.419747 -95.4083 -12.9795 3.57601 81.9257 -25.42 2.8306 -16.0269 8.48386 -82.4476 10.6079 -165.074 -2.01305 73.266 -14.1131 -3.5198 -81.4163 -29.5307 -4.24298 17.5519 4.18965 84.0598 -4.01246 -14.9034 1.87915 -178.555 -38.615 0.889011 -0.805914 6.62045 5.75274 0.883079 90 -5.56597e-015 -6.36111e-015 -3.73878 -9.8652 -179.307 -30.7894 -0.616335 0.197225 10.8491 1.80119 -1.36093 90 7.95139e-015 6.36111e-015 
-66.0102 87.6406 35.5804 -90.4894 27.1968 178.771 1.04148 2.74246 0.344065 2.07002 5.49117 0.639359 2.07002 5.49118 0.639343 -16.1137 1.94296 -11.1393 49.6756 5.15165 5.81655 -165.354 0.227086 -95.0401 -13.2005 3.66787 83.3474 -25.8068 2.92737 -16.2771 12.5519 -84.3349 14.8036 -165.366 -2.22408 73.605 -12.8231 -2.03857 -80.4385 -28.8655 -4.06351 17.2089 2.82142 81.879 -2.62909 -17.1073 1.5278 -176.557 -42.8268 0.803908 -0.618231 6.71844 10.7714 0.863482 90 -1.11319e-014 -1.27222e-014 -3.62622 -8.27953 -178.909 -30.1378 -0.638362 0.189764 9.55309 1.11758 -1.23184 90 -2.54444e-014 -3.18055e-015 
-65.9624 87.7881 35.119 -89.5456 29.9888 177.565 1.2958 2.81952 0.451502 2.57398 5.64896 0.840645 2.57397 5.64896 0.840631 -16.16 1.80149 -10.9134 49.0489 5.1634 6.34227 -165.371 0.0678943 -94.844 -15.4164 4.63502 84.2484 -26.6065 3.06839 -16.6904 20.6762 -86.3696 23.0228 -165.281 -2.32614 73.8441 -13.9288 -0.946451 -79.6307 -28.7927 -4.06749 17.2117 4.27586 83.8436 -4.13039 -18.0854 0.00697131 -174.481 -45.3301 0.717322 -0.472138 7.08096 16.5589 0.655864 90 -3.18055e-015 -0 -2.88889 -7.16681 -178.687 -29.2732 -0.645939 0.192473 9.01606 -0.493569 -1.2306 90 -7.95139e-016 6.36111e-015 
-65.6843 88.0523 34.5056 -88.7812 32.3167 177.07 1.39792 2.71352 0.428086 2.78018 5.43711 0.791192 2.78016 5.43712 0.791175 -15.8611 1.67491 -11.0105 49.241 5.44394 6.9995 -165.74 -0.109437 -94.9355 -16.9968 6.24402 84.817 -26.9339 3.09559 -16.821 14.7794 -85.3512 17.0285 -165.573 -2.42431 73.7929 -13.7699 -0.124357 -79.4961 -28.7825 -4.07423 17.2268 4.72157 84.3033 -4.56629 -18.1463 -2.12205 -173.114 -46.0506 0.694314 -0.457355 6.79947 15.3992 0.758463 90 3.18055e-015 6.36111e-015 -2.16107 -6.49939 -179.325 -28.1634 -0.648538 0.201401 8.2164 -2.09886 -1.24728 90 1.59028e-015 -0 
-65.1961 88.3064 33.7198 -88.474 35.1941 177.21 1.38721 2.67353 0.217545 2.76876 5.35199 0.370918 2.76875 5.35195 0.370905 -15.3764 1.48408 -10.2895 49.3852 5.20629 6.90637 -166.248 -0.0405472 -94.169 -16.2629 7.04758 84.3616 -26.3762 2.95535 -16.4819 5.92441 -81.391 8.0727 -166.053 -2.31354 74.5554 -13.8988 0.298725 -80.1639 -29.2574 -4.21815 17.5058 5.86356 84.9972 -5.71565 -17.6172 -3.76973 -171.905 -45.1871 0.716032 -0.548869 5.94879 9.16773 0.962646 90 3.18055e-015 6.36111e-015 -2.15651 -5.63562 179.309 -27.2555 -0.64891 0.22248 7.31769 -3.78589 -1.3161 90 -4.77083e-015 -0 
-64.6203 88.4849 32.9718 -88.5053 37.7147 177.01 1.3362 2.62055 0.187003 2.66802 5.24524 0.313342 2.668 5.24521 0.313336 -15.411 1.38072 -10.5756 50.1084 5.04754 7.08878 -166.238 -0.243973 -94.3663 -15.5315 7.35065 84.3863 -25.4458 2.78843 -15.9753 6.66242 -81.3808 8.79729 -166.062 -2.45739 74.3256 -14.1366 0.0626886 -80.5374 -30.2798 -4.5014 18.0412 7.08264 85.8971 -6.95082 -16.8374 -5.7065 -169.779 -43.1794 0.721874 -0.670439 3.17642 2.99852 0.760441 90 -9.54166e-015 -1.90833e-014 -2.18364 -4.53907 178.634 -26.1269 -0.648667 0.265074 6.25967 -5.22757 -1.40721 90 -1.59028e-015 -6.36111e-015 
-63.8533 88.5524 32.1017 -88.5504 39.9019 176.683 1.28608 2.49677 0.211168 2.56658 4.99816 0.366795 2.56656 4.99813 0.366787 -15.4721 1.39734 -10.6223 50.4386 4.8853 6.89317 -166.15 -0.245715 -94.3205 -13.1993 6.87169 84.35 -24.0115 2.53805 -15.2259 6.81946 -82.1787 8.95931 -166.028 -2.42786 74.2702 -14.8768 -0.659251 -80.5899 -31.1505 -4.73019 18.4775 7.83072 86.7249 -7.74468 -15.4927 -8.17428 -167.503 -40.3666 0.693295 -0.781511 0.993449 -1.63232 0.100902 90 1.27222e-014 3.18055e-015 -2.21148 -3.68772 177.975 -25.1189 -0.645926 0.302372 5.4362 -6.77563 -1.55149 90 1.03368e-014 1.90833e-014 
